<?xml version="1.0" encoding="UTF-8"?>
<svg version="1.1" xmlns="http://www.w3.org/2000/svg" width="96" height="96">
<path d="M0 0 C8.8734959 7.26134424 12.25900013 15.92441817 13.6640625 27.17822266 C15.24933365 43.68779424 14.83553061 61.68667874 4 75.125 C-3.93922185 83.76993046 -15.64588643 86.78769576 -27.12280273 87.4987793 C-41.91711125 88.05884339 -58.68424055 87.6664496 -70.37109375 77.40234375 C-80.18246711 67.19491495 -82.52769655 53.92443484 -82.4375 40.1875 C-82.43186035 39.27766357 -82.4262207 38.36782715 -82.42041016 37.43041992 C-82.18720952 24.31230696 -80.57231711 11.73274457 -70.8515625 2.12890625 C-53.21181858 -12.30601933 -18.78260442 -12.42116009 0 0 Z " fill="#2289CF" transform="translate(82.125,8.625)"/>
<path d="M0 0 C0.33 0.66 0.66 1.32 1 2 C0.2578125 4.171875 0.2578125 4.171875 -0.875 6.75 C-6.51282208 19.60265732 -6.21971423 39.24028945 -2.375 52.625 C-1.30550652 55.45838057 -1.30550652 55.45838057 0 58 C0.61875 59.26263672 0.61875 59.26263672 1.25 60.55078125 C5.74224642 68.34840217 12.55541308 72.04118681 20.95703125 74.640625 C27.63918889 76.38233183 34.12876189 76.44178309 41 76.375 C42.79050781 76.39240234 42.79050781 76.39240234 44.6171875 76.41015625 C56.44090465 76.37134755 67.00107384 74.42524369 75.90625 66.25 C85.31152341 56.36649235 86.19365802 44.95954063 86.25 31.9375 C86.270625 30.77283203 86.29125 29.60816406 86.3125 28.40820312 C86.3573196 18.35180599 84.40864919 9.43933621 81 0 C87.34774974 5.79961536 88.64982705 16.00625027 89.12988281 24.22314453 C89.77429738 40.46694812 89.08246575 56.90742618 77.54296875 69.47265625 C67.6861599 79.22964932 52.31130905 80.25556595 39.12890625 80.2487793 C26.99707788 80.0779604 14.15557205 78.28445893 4.75390625 70.02734375 C-5.05877944 59.81854965 -7.40015043 46.55041638 -7.3125 32.8125 C-7.30831055 31.90483887 -7.30412109 30.99717773 -7.29980469 30.06201172 C-7.12563132 19.55416926 -6.22852502 8.80584572 0 0 Z " fill="#000305" transform="translate(7,16)"/>
<path d="M0 0 C1.11052734 -0.02449219 2.22105469 -0.04898437 3.36523438 -0.07421875 C4.42935547 -0.07808594 5.49347656 -0.08195312 6.58984375 -0.0859375 C7.56687256 -0.09415527 8.54390137 -0.10237305 9.55053711 -0.11083984 C12.0625 0.375 12.0625 0.375 13.54443359 2.36572266 C14.92191986 4.64777745 14.92191986 4.64777745 17.69799805 4.92089844 C19.24547729 4.95231934 19.24547729 4.95231934 20.82421875 4.984375 C21.94248047 5.01660156 23.06074219 5.04882812 24.21289062 5.08203125 C25.38013672 5.09621094 26.54738281 5.11039063 27.75 5.125 C29.51827148 5.16947266 29.51827148 5.16947266 31.32226562 5.21484375 C34.23574632 5.28561656 37.14842336 5.33827725 40.0625 5.375 C40.0625 6.695 40.0625 8.015 40.0625 9.375 C35.60422074 9.4328304 31.1460372 9.46853855 26.6875 9.5 C25.41648438 9.51675781 24.14546875 9.53351562 22.8359375 9.55078125 C21.01835938 9.56044922 21.01835938 9.56044922 19.1640625 9.5703125 C18.04338379 9.58078613 16.92270508 9.59125977 15.76806641 9.60205078 C13.0625 9.375 13.0625 9.375 11.0625 7.375 C11.0625 6.385 11.0625 5.395 11.0625 4.375 C4.1325 4.375 -2.7975 4.375 -9.9375 4.375 C-9.9375 18.565 -9.9375 32.755 -9.9375 47.375 C-11.2575 47.375 -12.5775 47.375 -13.9375 47.375 C-13.9880963 41.00296407 -14.02318957 34.6309797 -14.04736328 28.25878906 C-14.05743789 26.08982406 -14.07109798 23.92087269 -14.08837891 21.75195312 C-14.11256323 18.63928874 -14.12396832 15.52680349 -14.1328125 12.4140625 C-14.14313507 11.440065 -14.15345764 10.4660675 -14.16409302 9.46255493 C-14.16424408 8.56177216 -14.16439514 7.66098938 -14.16455078 6.73291016 C-14.168992 5.93793121 -14.17343323 5.14295227 -14.17800903 4.32388306 C-13.40026376 -1.97831093 -4.67364474 0.00540618 0 0 Z " fill="#ECF5FB" transform="translate(34.9375,22.625)"/>
<path d="M0 0 C1.32 0 2.64 0 4 0 C4.14532035 4.56216465 4.23408477 9.12373362 4.3125 13.6875 C4.35439453 14.98107422 4.39628906 16.27464844 4.43945312 17.60742188 C4.45556641 18.85458984 4.47167969 20.10175781 4.48828125 21.38671875 C4.51446533 22.53358154 4.54064941 23.68044434 4.56762695 24.86206055 C3.79295214 29.14459618 2.55872743 30.51599451 -1 33 C-4.02560947 33.6503902 -6.93662212 33.58445152 -10.01953125 33.48828125 C-10.87810226 33.48120651 -11.73667328 33.47413177 -12.6212616 33.46684265 C-15.35257603 33.43894402 -18.08180958 33.37621691 -20.8125 33.3125 C-22.6685901 33.28741114 -24.52471246 33.26459899 -26.38085938 33.24414062 C-30.92136972 33.18913253 -35.46033257 33.10289364 -40 33 C-40 31.68 -40 30.36 -40 29 C-27.13 28.67 -14.26 28.34 -1 28 C-0.67 18.76 -0.34 9.52 0 0 Z " fill="#E8F3FA" transform="translate(71,37)"/>
<path d="M0 0 C2.9375 0.875 2.9375 0.875 4.9375 3.875 C4.67236085 6.21706251 4.33137788 8.55112053 3.9375 10.875 C3.90114237 12.8746695 3.88873402 14.87559462 3.9375 16.875 C0.6375 16.875 -2.6625 16.875 -6.0625 16.875 C-6.14347324 14.60475032 -6.20167704 12.33367925 -6.25 10.0625 C-6.28480469 8.79792969 -6.31960937 7.53335938 -6.35546875 6.23046875 C-6.0625 2.875 -6.0625 2.875 -4.7421875 0.91796875 C-3.0625 -0.125 -3.0625 -0.125 0 0 Z " fill="#E7F2F9" transform="translate(49.0625,40.125)"/>
<path d="M0 0 C2.475 0.495 2.475 0.495 5 1 C4.835 1.886875 4.67 2.77375 4.5 3.6875 C4.07004243 6.53596892 3.91558965 9.13004802 4 12 C2.68 12 1.36 12 0 12 C0 8.04 0 4.08 0 0 Z " fill="#3E99D7" transform="translate(46,43)"/>
<path d="M0 0 C0.66 0.33 1.32 0.66 2 1 C-1.63 4.63 -5.26 8.26 -9 12 C-9.33 10.68 -9.66 9.36 -10 8 C-6.7 5.36 -3.4 2.72 0 0 Z " fill="#176091" transform="translate(18,6)"/>
<path d="M0 0 C2.875 0.3125 2.875 0.3125 6 1 C8 4 8 4 8 7 C7.01 7 6.02 7 5 7 C4.67 6.01 4.34 5.02 4 4 C3.01 3.67 2.02 3.34 1 3 C0.67 2.01 0.34 1.02 0 0 Z " fill="#DAEBF7" transform="translate(46,40)"/>
</svg>
